#!OML:ASF H:\MichaelJackson\Top Level 1\Subject 1\Session 1\male.ASF
:FULLY-SPECIFIED
:DEGREES
110
root -15.6696 17.0043 -17.8747 9.49251 -6.09741 -7.24907
lowerback -2.02769 4.26958 4.07399
upperback -1.10399 5.61753 1.3581
thorax 0.251831 2.79872 -0.739571
lowerneck -7.2364 -1.7249 1.22087
upperneck -5.64551 -2.35901 0.494097
head -0.551844 -1.19941 -0.0837604
rclavicle -9.18137e-015 -2.88238e-014
rhumerus -31.7992 15.1174 -93.9072
rradius 43.9146
rwrist 11.632
rhand -19.7499 -22.1297
rfingers 7.12502
rthumb 6.58129 -52.0075
lclavicle -9.18137e-015 -2.88238e-014
lhumerus -44.2928 -1.77463 86.2735
lradius 44.0222
lwrist 0.500371
lhand -5.48609 7.80453
lfingers 7.12502
lthumb 20.3263 36.7608
rfemur -8.17724 -1.5656 25.6355
rtibia 24.1602
rfoot -21.8591 -14.5045
rtoes 7.39891
lfemur -46.1254 14.4027 -12.945
ltibia 57.9247
lfoot -7.50526 -3.80785
ltoes 13.0803
111
root -15.6459 16.9986 -17.8228 9.49461 -6.20196 -7.31566
lowerback -2.11207 4.33538 4.12331
upperback -1.11389 5.69978 1.3787
thorax 0.294864 2.84023 -0.736219
lowerneck -7.29247 -1.74891 1.19882
upperneck -5.49837 -2.39279 0.437138
head -0.498832 -1.21497 -0.0993567
rclavicle -6.68413e-015 4.77083e-015
rhumerus -31.5369 15.4135 -93.907
rradius 44.3024
rwrist 11.503
rhand -20.0956 -22.2221
rfingers 7.12502
rthumb 6.24755 -52.11
lclavicle -6.68413e-015 4.77083e-015
lhumerus -44.5156 -1.31555 86.0175
lradius 43.5228
lwrist -0.140145
lhand -4.99715 8.08153
lfingers 7.12502
lthumb 20.7961 36.9871
rfemur -7.79886 -1.36936 25.5866
rtibia 23.8174
rfoot -21.8275 -14.6686
rtoes 7.0324
lfemur -45.6783 13.0079 -12.0817
ltibia 56.4609
lfoot -7.70818 -2.80571
ltoes 12.9071
112
root -15.6209 16.992 -17.7688 9.47577 -6.31831 -7.39342
lowerback -2.17351 4.41021 4.17418
upperback -1.1253 5.79527 1.40615
thorax 0.323613 2.88812 -0.728068
lowerneck -7.33307 -1.77747 1.17541
upperneck -5.36231 -2.43191 0.384976
head -0.451618 -1.23334 -0.113226
rclavicle -3.41288e-014 -1.82882e-014
rhumerus -31.2958 15.7185 -93.909
rradius 44.692
rwrist 11.3435
rhand -20.4129 -22.3084
rfingers 7.12502
rthumb 5.94116 -52.2051
lclavicle -3.41288e-014 -1.82882e-014
lhumerus -44.7398 -0.826342 85.7439
lradius 43.0269
lwrist -0.846375
lhand -4.50869 8.33027
lfingers 7.12502
lthumb 21.2654 37.1837
rfemur -7.38638 -1.19078 25.5385
rtibia 23.4698
rfoot -21.7963 -14.8078
rtoes 6.61947
lfemur -45.1718 11.5189 -11.1432
ltibia 55.0085
lfoot -7.88068 -1.70304
ltoes 12.9132
113
root -15.5946 16.9841 -17.7126 9.43704 -6.44551 -7.47751
lowerback -2.22064 4.49684 4.21905
upperback -1.13449 5.90728 1.43693
thorax 0.346489 2.94423 -0.713569
lowerneck -7.3729 -1.8105 1.15161
upperneck -5.2268 -2.47641 0.345972
head -0.404553 -1.25444 -0.123215
rclavicle 2.48854e-014 -9.93923e-016
rhumerus -31.0556 16.0158 -93.9068
rradius 45.0636
rwrist 11.1626
rhand -20.6904 -22.3796
rfingers 7.12502
rthumb 5.67328 -52.2837
lclavicle 2.48854e-014 -9.93923e-016
lhumerus -44.9639 -0.324278 85.4547
lradius 42.5485
lwrist -1.57931
lhand -4.04208 8.56129
lfingers 7.12502
lthumb 21.7135 37.3635
rfemur -6.94627 -1.04431 25.4859
rtibia 23.1286
rfoot -21.7719 -14.9115
rtoes 6.1428
lfemur -44.6207 9.96331 -10.1556
ltibia 53.5915
lfoot -8.0061 -0.539621
ltoes 13.2119
114
root -15.5676 16.9744 -17.654 9.38175 -6.58148 -7.56677
lowerback -2.24286 4.59243 4.25845
upperback -1.15738 6.03328 1.46559
thorax 0.341689 3.00675 -0.700484
lowerneck -7.39478 -1.85013 1.13952
upperneck -5.08301 -2.53 0.315832
head -0.357869 -1.2803 -0.132524
rclavicle -4.56956e-014 7.25564e-015
rhumerus -30.8421 16.2918 -93.9144
rradius 45.414
rwrist 10.989
rhand -20.9692 -22.4226
rfingers 7.12502
rthumb 5.40412 -52.3337
lclavicle -4.56956e-014 7.25564e-015
lhumerus -45.2073 0.182125 85.1401
lradius 42.0868
lwrist -2.30509
lhand -3.60818 8.73159
lfingers 7.12502
lthumb 22.1302 37.485
rfemur -6.48475 -0.926898 25.429
rtibia 22.8011
rfoot -21.7579 -14.986
rtoes 5.59237
lfemur -44.043 8.37163 -9.14308
ltibia 52.2336
lfoot -8.1049 0.649867
ltoes 13.6389
115
root -15.5398 16.9632 -17.5928 9.31936 -6.72308 -7.65624
lowerback -2.30693 4.69333 4.26543
upperback -1.15553 6.16358 1.51111
thorax 0.380664 3.07254 -0.647266
lowerneck -7.43043 -1.89186 1.11365
upperneck -4.95459 -2.5852 0.293441
head -0.313383 -1.30682 -0.137429
rclavicle -3.61291e-014 -1.19271e-014
rhumerus -30.5857 16.586 -93.8866
rradius 45.7286
rwrist 10.8063
rhand -21.2536 -22.4042
rfingers 7.12502
rthumb 5.12947 -52.3221
lclavicle -3.61291e-014 -1.19271e-014
lhumerus -45.4371 0.721174 84.8263
lradius 41.6718
lwrist -2.99965
lhand -3.20537 8.89327
lfingers 7.12502
lthumb 22.5169 37.6004
rfemur -6.01773 -0.84477 25.3638
rtibia 22.4962
rfoot -21.7555 -15.0332
rtoes 4.95999
lfemur -43.4648 6.77463 -8.13384
ltibia 50.9527
lfoot -8.19153 1.8149
ltoes 14.0847
116
root -15.5115 16.9505 -17.5287 9.25298 -6.87619 -7.74316
lowerback -2.37237 4.80362 4.25574
upperback -1.16388 6.30705 1.55021
thorax 0.409224 3.14468 -0.591196
lowerneck -7.47705 -1.93709 1.1034
upperneck -4.79988 -2.64618 0.279464
head -0.259199 -1.33635 -0.142839
rclavicle -1.20016e-014 -3.53837e-014
rhumerus -30.3319 16.8475 -93.8599
rradius 46.0072
rwrist 10.6382
rhand -21.5401 -22.3333
rfingers 7.12502
rthumb 4.85286 -52.2578
lclavicle -1.20016e-014 -3.53837e-014
lhumerus -45.6903 1.24516 84.4918
lradius 41.3006
lwrist -3.62513
lhand -2.84439 9.06211
lfingers 7.12502
lthumb 22.8633 37.7268
rfemur -5.55087 -0.804818 25.2851
rtibia 22.2178
rfoot -21.7633 -15.0478
rtoes 4.22551
lfemur -42.8954 5.21376 -7.15183
ltibia 49.7656
lfoot -8.2773 2.91168
ltoes 14.5351
117
root -15.4826 16.9362 -17.4616 9.18748 -7.0284 -7.82747
lowerback -2.46606 4.91926 4.22307
upperback -1.17643 6.45668 1.5901
thorax 0.446579 3.22006 -0.518951
lowerneck -7.51381 -1.98716 1.10883
upperneck -4.63467 -2.71464 0.264304
head -0.203527 -1.36985 -0.151367
rclavicle -1.58158e-014 1.86858e-014
rhumerus -30.0865 17.0836 -93.8229
rradius 46.2631
rwrist 10.4828
rhand -21.8241 -22.2039
rfingers 7.12502
rthumb 4.57861 -52.1344
lclavicle -1.58158e-014 1.86858e-014
lhumerus -45.9542 1.75759 84.1478
lradius 40.962
lwrist -4.16842
lhand -2.51029 9.28827
lfingers 7.12502
lthumb 23.1839 37.913
rfemur -5.08968 -0.793474 25.1972
rtibia 21.9676
rfoot -21.7843 -15.0528
rtoes 3.42069
lfemur -42.3513 3.71788 -6.22055
ltibia 48.6832
lfoot -8.33235 3.91407
ltoes 15.0377
118
root -15.4529 16.9205 -17.3912 9.12427 -7.18661 -7.91176
lowerback -2.61822 5.03684 4.15956
upperback -1.17015 6.60546 1.64574
thorax 0.530128 3.29597 -0.40698
lowerneck -7.57039 -2.03553 1.11098
upperneck -4.46205 -2.78099 0.239761
head -0.142379 -1.40224 -0.162598
rclavicle 1.77664e-015 -7.45443e-015
rhumerus -29.8169 17.3241 -93.7472
rradius 46.5017
rwrist 10.3284
rhand -21.9294 -22.1029
rfingers 7.12502
rthumb 4.47692 -52.0356
lclavicle 1.77664e-015 -7.45443e-015
lhumerus -46.2061 2.2897 83.8071
lradius 40.663
lwrist -4.62357
lhand -2.20483 9.55162
lfingers 7.12502
lthumb 23.4769 38.1392
rfemur -4.63472 -0.832429 25.0984
rtibia 21.743
rfoot -21.8075 -15.0344
rtoes 2.48721
lfemur -41.8319 2.32415 -5.35723
ltibia 47.7136
lfoot -8.39224 4.78593
ltoes 15.4306
119
root -15.4225 16.9031 -17.3175 9.06476 -7.33917 -7.99237
lowerback -2.7603 5.1561 4.09207
upperback -1.19526 6.7586 1.68545
thorax 0.576708 3.37314 -0.311131
lowerneck -7.62605 -2.08677 1.13871
upperneck -4.24672 -2.85313 0.221801
head -0.0684236 -1.43767 -0.176607
rclavicle 6.79595e-015 -1.69961e-014
rhumerus -29.6022 17.5043 -93.6916
rradius 46.7415
rwrist 10.1884
rhand -21.9201 -22.0084
rfingers 7.12502
rthumb 4.48597 -51.9409
lclavicle 6.79595e-015 -1.69961e-014
lhumerus -46.5085 2.7895 83.4286
lradius 40.4071
lwrist -4.985
lhand -1.92549 9.78678
lfingers 7.12502
lthumb 23.7449 38.3398
rfemur -4.18811 -0.919159 24.9869
rtibia 21.5441
rfoot -21.8288 -15.0098
rtoes 1.42523
lfemur -41.3442 1.05778 -4.58574
ltibia 46.8621
lfoot -8.45623 5.50693
ltoes 15.5485
120
root -15.3911 16.8848 -17.2402 9.00291 -7.48462 -8.07046
lowerback -2.90699 5.27306 4.01596
upperback -1.23673 6.90946 1.71939
thorax 0.608009 3.44882 -0.216676
lowerneck -7.68969 -2.1365 1.17984
upperneck -3.99213 -2.92458 0.208124
head 0.0189782 -1.47269 -0.192136
rclavicle 1.64743e-014 7.95139e-016
rhumerus -29.4329 17.6512 -93.6406
rradius 46.9971
rwrist 10.039
rhand -21.6943 -21.9368
rfingers 7.12502
rthumb 4.70395 -51.8646
lclavicle 1.64743e-014 7.95139e-016
lhumerus -46.8549 3.27958 83.0177
lradius 40.204
lwrist -5.26346
lhand -1.66142 9.98732
lfingers 7.12502
lthumb 23.9981 38.5072
rfemur -3.74567 -1.08661 24.8583
rtibia 21.3712
rfoot -21.8392 -14.9553
rtoes 0.196707
lfemur -40.8799 -0.0634345 -3.92004
ltibia 46.1299
lfoot -8.51214 6.08741
ltoes 15.166
121
root -15.3583 16.8652 -17.1596 8.9365 -7.61404 -8.14682
lowerback -3.07168 5.38195 3.93182
upperback -1.28117 7.04905 1.75734
thorax 0.643798 3.51891 -0.112282
lowerneck -7.77011 -2.18288 1.21471
upperneck -3.7068 -2.99151 0.198934
head 0.119047 -1.5051 -0.205935
rclavicle -1.3828e-014 1.21259e-014
rhumerus -29.2971 17.7759 -93.5759
rradius 47.2757
rwrist 9.8756
rhand -21.2169 -21.8784
rfingers 7.12502
rthumb 5.16491 -51.7954
lclavicle -1.3828e-014 1.21259e-014
lhumerus -47.2103 3.78332 82.5835
lradius 40.0226
lwrist -5.466
lhand -1.4074 10.1524
lfingers 7.12502
lthumb 24.2417 38.64
rfemur -3.30778 -1.33072 24.7128
rtibia 21.2314
rfoot -21.8418 -14.8808
rtoes -1.19054
lfemur -40.4378 -1.03102 -3.37182
ltibia 45.5196
lfoot -8.55632 6.53716
ltoes 14.1759
122
root -15.3241 16.8444 -17.0756 8.86141 -7.7221 -8.21857
lowerback -3.2227 5.48601 3.85245
upperback -1.34954 7.18401 1.78326
thorax 0.648668 3.58608 -0.0254195
lowerneck -7.84035 -2.23124 1.25443
upperneck -3.39384 -3.06151 0.208583
head 0.226565 -1.53872 -0.215221
rclavicle 3.58434e-014 1.98785e-015
rhumerus -29.2304 17.8278 -93.5186
rradius 47.5859
rwrist 9.70102
rhand -20.54 -21.7992
rfingers 7.12502
rthumb 5.81845 -51.6993
lclavicle 3.58434e-014 1.98785e-015
lhumerus -47.6256 4.26253 82.1098
lradius 39.9046
lwrist -5.59697
lhand -1.16621 10.2551
lfingers 7.12502
lthumb 24.4729 38.7116
rfemur -2.87789 -1.65333 24.5452
rtibia 21.1386
rfoot -21.8339 -14.787
rtoes -2.73597
lfemur -40.0107 -1.84788 -2.9486
ltibia 45.0324
lfoot -8.61309 6.90109
ltoes 12.6238
